<svg xmlns="http://www.w3.org/2000/svg" viewBox="0 0 1200 750" role="img" aria-labelledby="title desc">
  <title id="title">Ancient DNA thumbnail</title>
  <desc id="desc">A stylized archaeological site with ancient DNA strands and grave markers.</desc>
  <defs>
    <linearGradient id="bg" x1="0" x2="1" y1="0" y2="1"><stop stop-color="#0d121a"/><stop offset="1" stop-color="#2a1d18"/></linearGradient>
  </defs>
  <rect width="1200" height="750" fill="url(#bg)"/>
  <circle cx="220" cy="150" r="150" fill="#f3c969" opacity=".14"/>
  <path d="M120 590c160-60 310-80 470-48s310 20 490-50v118H120z" fill="#2b241f"/>
  <path d="M260 460h120v100H260zM520 400h150v140H520zM820 445h110v105H820z" fill="#463a30" stroke="#f3c969" stroke-width="7" opacity=".9"/>
  <path d="M180 250c70-120 170-120 240 0s170 120 240 0 170-120 240 0" fill="none" stroke="#71e6d6" stroke-width="15" stroke-linecap="round"/>
  <path d="M180 345c70 120 170 120 240 0s170-120 240 0 170 120 240 0" fill="none" stroke="#a88bff" stroke-width="15" stroke-linecap="round"/>
  <circle cx="500" cy="300" r="12" fill="#f3c969"/><circle cx="650" cy="300" r="12" fill="#f3c969"/><circle cx="800" cy="300" r="12" fill="#f3c969"/>
</svg>
