<svg xmlns="http://www.w3.org/2000/svg" viewBox="0 0 1600 900" role="img" aria-label="Trilobite metamorphosis thumbnail">
  <defs>
    <linearGradient id="bg" x1="0" x2="1" y1="0" y2="1">
      <stop offset="0" stop-color="#0a0f16"/>
      <stop offset="1" stop-color="#3a2a1a"/>
    </linearGradient>
    <radialGradient id="sand" cx="50%" cy="110%" r="90%">
      <stop offset="0" stop-color="#f3c969" stop-opacity="0.35"/>
      <stop offset="1" stop-color="#f3c969" stop-opacity="0"/>
    </radialGradient>
  </defs>
  <rect width="1600" height="900" fill="url(#bg)"/>
  <rect width="1600" height="900" fill="url(#sand)"/>
  <g opacity="0.9">
    <path d="M760 220c-120 40-200 130-200 260s80 220 200 260c120-40 200-130 200-260s-80-220-200-260Z" fill="#71e6d6" opacity="0.18"/>
    <path d="M840 250c-90 30-150 100-150 200s60 170 150 200c90-30 150-100 150-200s-60-170-150-200Z" fill="#ff8bbd" opacity="0.14"/>
    <g fill="none" stroke="#71e6d6" stroke-width="10" opacity="0.6">
      <path d="M560 480h520"/>
      <path d="M610 420h420"/>
      <path d="M610 540h420"/>
    </g>
  </g>
</svg>

