<svg xmlns="http://www.w3.org/2000/svg" viewBox="0 0 1600 900" role="img" aria-label="Supercoiling circuit thumbnail">
  <defs>
    <linearGradient id="bg" x1="0" x2="1" y1="0" y2="1">
      <stop offset="0" stop-color="#071017"/>
      <stop offset="1" stop-color="#1a2f4d"/>
    </linearGradient>
  </defs>
  <rect width="1600" height="900" fill="url(#bg)"/>
  <g opacity="0.85" fill="none" stroke="#71e6d6" stroke-width="10" stroke-linecap="round">
    <path d="M220 480c120-140 240-140 360 0s240 140 360 0 240-140 360 0 240 140 360 0"/>
    <path d="M220 420c120 140 240 140 360 0s240-140 360 0 240 140 360 0 240-140 360 0 240 140 360 0" opacity="0.55"/>
  </g>
  <g opacity="0.9" fill="#f3c969">
    <circle cx="400" cy="450" r="10"/>
    <circle cx="760" cy="450" r="10"/>
    <circle cx="1120" cy="450" r="10"/>
  </g>
  <g opacity="0.85" fill="#ff8bbd">
    <circle cx="580" cy="520" r="14"/>
    <circle cx="940" cy="380" r="14"/>
    <circle cx="1300" cy="520" r="14"/>
  </g>
</svg>

