<?xml version="1.0" encoding="UTF-8"?>
<svg xmlns="http://www.w3.org/2000/svg" width="1200" height="630" viewBox="0 0 1200 630" role="img" aria-label="thumbnail">
  <defs>
    <linearGradient id="g" x1="0" y1="0" x2="1" y2="1">
      <stop offset="0" stop-color="hsl(195 70% 50%)"/>
      <stop offset="1" stop-color="hsl(335 70% 45%)"/>
    </linearGradient>
    <radialGradient id="r" cx="30%" cy="30%" r="80%">
      <stop offset="0" stop-color="hsl(95 80% 70%)" stop-opacity="0.85"/>
      <stop offset="1" stop-color="hsl(95 80% 40%)" stop-opacity="0"/>
    </radialGradient>
    <filter id="soft" x="-20%" y="-20%" width="140%" height="140%">
      <feGaussianBlur stdDeviation="10"/>
    </filter>
  </defs>
  <rect width="1200" height="630" fill="url(#g)"/>
  <circle cx="280" cy="160" r="220" fill="url(#r)" filter="url(#soft)"/>
  <circle cx="980" cy="520" r="260" fill="url(#r)" filter="url(#soft)"/>
  <g opacity="0.92">
    <path d="M90 490 C 260 360, 390 560, 560 430 S 860 420, 1110 300" fill="none" stroke="rgba(255,255,255,0.75)" stroke-width="12"/>
    <path d="M120 520 C 320 420, 420 610, 610 470 S 910 450, 1140 330" fill="none" stroke="rgba(0,0,0,0.12)" stroke-width="18"/>
  </g>
  <g opacity="0.75">
    <rect x="120" y="90" width="160" height="160" rx="28" fill="rgba(255,255,255,0.14)"/>
    <rect x="930" y="110" width="210" height="210" rx="34" fill="rgba(255,255,255,0.10)"/>
    <rect x="640" y="320" width="220" height="220" rx="38" fill="rgba(255,255,255,0.08)"/>
  </g>
</svg>
