<svg xmlns="http://www.w3.org/2000/svg" viewBox="0 0 1600 900" role="img" aria-label="Stentor learning thumbnail">
  <defs>
    <linearGradient id="bg" x1="0" x2="1" y1="0" y2="1">
      <stop offset="0" stop-color="#06111c"/>
      <stop offset="1" stop-color="#22406d"/>
    </linearGradient>
    <radialGradient id="spot" cx="40%" cy="45%" r="60%">
      <stop offset="0" stop-color="#ff8bbd" stop-opacity="0.35"/>
      <stop offset="1" stop-color="#ff8bbd" stop-opacity="0"/>
    </radialGradient>
  </defs>
  <rect width="1600" height="900" fill="url(#bg)"/>
  <rect width="1600" height="900" fill="url(#spot)"/>
  <g opacity="0.9">
    <path d="M620 240c120 0 220 80 220 200 0 140-120 220-120 340 0 90 60 150 60 150H560s60-60 60-150c0-120-120-200-120-340 0-120 100-200 220-200Z" fill="#ffffff" opacity="0.08"/>
    <path d="M620 300c80 0 140 52 140 140 0 110-80 170-80 260 0 70 40 110 40 110H520s40-40 40-110c0-90-80-150-80-260 0-88 60-140 140-140Z" fill="#71e6d6" opacity="0.14"/>
    <g fill="#f3c969" opacity="0.9">
      <circle cx="740" cy="380" r="10"/>
      <circle cx="770" cy="430" r="8"/>
      <circle cx="710" cy="460" r="7"/>
      <circle cx="760" cy="500" r="9"/>
    </g>
  </g>
</svg>

