<svg xmlns="http://www.w3.org/2000/svg" viewBox="0 0 1600 900" role="img" aria-label="Neocortex regulatory thumbnail">
  <defs>
    <linearGradient id="bg" x1="0" x2="1" y1="0" y2="1">
      <stop offset="0" stop-color="#08131f"/>
      <stop offset="1" stop-color="#1f3a6a"/>
    </linearGradient>
  </defs>
  <rect width="1600" height="900" fill="url(#bg)"/>
  <g opacity="0.85">
    <path d="M520 270c220-150 520-110 640 80 120 190 20 450-220 520-240 70-500-70-560-260-60-190-20-280 140-340Z" fill="#ffffff" opacity="0.06"/>
    <g fill="none" stroke="#71e6d6" stroke-width="10" opacity="0.65">
      <path d="M620 520c80-160 220-240 420-240"/>
      <path d="M620 520c120 40 240 160 300 300"/>
      <path d="M940 280c80 140 120 280 120 420"/>
    </g>
    <g fill="#ff8bbd" opacity="0.85">
      <circle cx="620" cy="520" r="16"/>
      <circle cx="1040" cy="280" r="16"/>
      <circle cx="920" cy="820" r="14"/>
      <circle cx="1060" cy="700" r="12" opacity="0.8"/>
    </g>
  </g>
</svg>

