<?xml version="1.0" encoding="UTF-8"?>
<svg xmlns="http://www.w3.org/2000/svg" width="1200" height="675" viewBox="0 0 1200 675" role="img" aria-label="thumbnail">
  <defs>
    <linearGradient id="g" x1="0" y1="0" x2="1" y2="1">
      <stop offset="0" stop-color="#a855f7" stop-opacity="0.9"/>
      <stop offset="1" stop-color="#f59e0b" stop-opacity="0.85"/>
    </linearGradient>
    <filter id="blur" x="-20%" y="-20%" width="140%" height="140%">
      <feGaussianBlur stdDeviation="28"/>
    </filter>
  </defs>
  <rect width="1200" height="675" fill="#0f172a"/>
  <circle cx="353" cy="281" r="220" fill="url(#g)" filter="url(#blur)" opacity="0.85"/>
  <circle cx="761" cy="353" r="260" fill="#f59e0b" filter="url(#blur)" opacity="0.55"/>
  <path d="M0,520 C220,420 360,620 560,520 C760,420 920,560 1200,470 L1200,675 L0,675 Z" fill="#a855f7" opacity="0.22"/>
  <path d="M0,560 C240,470 420,650 610,560 C800,470 940,600 1200,520" stroke="#f59e0b" stroke-width="10" opacity="0.35" fill="none"/>
  <g opacity="0.35">
    <circle cx="1020" cy="130" r="6" fill="#ffffff"/>
    <circle cx="1080" cy="170" r="4" fill="#ffffff"/>
    <circle cx="1120" cy="120" r="5" fill="#ffffff"/>
    <circle cx="980" cy="180" r="3.5" fill="#ffffff"/>
  </g>
</svg>
