<svg xmlns="http://www.w3.org/2000/svg" viewBox="0 0 1600 900" role="img" aria-label="Asgard phylogenomics thumbnail">
  <defs>
    <linearGradient id="bg" x1="0" x2="1" y1="0" y2="1">
      <stop offset="0" stop-color="#0b0f19"/>
      <stop offset="1" stop-color="#2a1b52"/>
    </linearGradient>
  </defs>
  <rect width="1600" height="900" fill="url(#bg)"/>
  <g fill="none" stroke="#71e6d6" stroke-width="10" opacity="0.7" stroke-linecap="round">
    <path d="M300 700V320"/>
    <path d="M300 420h260"/>
    <path d="M560 420v-150"/>
    <path d="M560 420v150"/>
    <path d="M560 270h260"/>
    <path d="M560 570h260"/>
    <path d="M820 270v-90"/>
    <path d="M820 270v90"/>
    <path d="M820 570v-90"/>
    <path d="M820 570v90"/>
    <path d="M820 180h260"/>
    <path d="M820 360h260"/>
    <path d="M820 480h260"/>
    <path d="M820 660h260"/>
  </g>
  <g opacity="0.95">
    <circle cx="300" cy="420" r="16" fill="#f3c969"/>
    <circle cx="560" cy="420" r="16" fill="#f3c969"/>
    <circle cx="560" cy="270" r="14" fill="#ff8bbd"/>
    <circle cx="560" cy="570" r="14" fill="#ff8bbd"/>
    <circle cx="820" cy="270" r="14" fill="#71e6d6"/>
    <circle cx="820" cy="570" r="14" fill="#71e6d6"/>
    <circle cx="1080" cy="180" r="12" fill="#71e6d6" opacity="0.85"/>
    <circle cx="1080" cy="360" r="12" fill="#71e6d6" opacity="0.85"/>
    <circle cx="1080" cy="480" r="12" fill="#71e6d6" opacity="0.85"/>
    <circle cx="1080" cy="660" r="12" fill="#71e6d6" opacity="0.85"/>
  </g>
</svg>

